<svg xmlns="http://www.w3.org/2000/svg" width="360" height="126" viewBox="0 0 360 126" role="img" aria-label="Languages">
  <title>Languages</title>
  <rect width="360" height="126" fill="#ffffff"/>
  
  <text x="0" y="20" font-family="Arial, Helvetica, sans-serif" font-size="12" fill="#333333">TypeScript</text>
  <rect x="90" y="13" width="230" height="6" fill="#e4e4de"/>
  <rect x="90" y="13" width="96" height="6" fill="#3178c6"/>
  <text x="360" y="20" font-family="Arial, Helvetica, sans-serif" font-size="12" fill="#666666" text-anchor="end">42%</text>
  <text x="0" y="42" font-family="Arial, Helvetica, sans-serif" font-size="12" fill="#333333">JavaScript</text>
  <rect x="90" y="35" width="230" height="6" fill="#e4e4de"/>
  <rect x="90" y="35" width="67" height="6" fill="#f1e05a"/>
  <text x="360" y="42" font-family="Arial, Helvetica, sans-serif" font-size="12" fill="#666666" text-anchor="end">29%</text>
  <text x="0" y="64" font-family="Arial, Helvetica, sans-serif" font-size="12" fill="#333333">Python</text>
  <rect x="90" y="57" width="230" height="6" fill="#e4e4de"/>
  <rect x="90" y="57" width="52" height="6" fill="#3572a5"/>
  <text x="360" y="64" font-family="Arial, Helvetica, sans-serif" font-size="12" fill="#666666" text-anchor="end">23%</text>
  <text x="0" y="86" font-family="Arial, Helvetica, sans-serif" font-size="12" fill="#333333">HTML</text>
  <rect x="90" y="79" width="230" height="6" fill="#e4e4de"/>
  <rect x="90" y="79" width="7" height="6" fill="#e34c26"/>
  <text x="360" y="86" font-family="Arial, Helvetica, sans-serif" font-size="12" fill="#666666" text-anchor="end">3%</text>
  <text x="0" y="108" font-family="Arial, Helvetica, sans-serif" font-size="12" fill="#333333">Vue</text>
  <rect x="90" y="101" width="230" height="6" fill="#e4e4de"/>
  <rect x="90" y="101" width="7" height="6" fill="#41b883"/>
  <text x="360" y="108" font-family="Arial, Helvetica, sans-serif" font-size="12" fill="#666666" text-anchor="end">3%</text>
</svg>
